<svg width="1012" height="910" viewBox="0 0 1012 910" fill="none" xmlns="http://www.w3.org/2000/svg">
<mask id="mask0" mask-type="alpha" maskUnits="userSpaceOnUse" x="0" y="0" width="1012" height="910">
<rect width="1012" height="910" rx="80" fill="#C4C4C4"/>
</mask>
<g mask="url(#mask0)">
<path fill-rule="evenodd" clip-rule="evenodd" d="M243 2.74181e-06V206H19C12.5345 206 6.18842 206.511 0 207.496V80C0 35.8172 35.8172 2.74181e-06 80 2.74181e-06H243ZM273 0V206H268C334.274 206 388 259.726 388 326V325H624V326C624 259.726 677.726 206 744 206H740V0H273ZM770 0V206H993C999.465 206 1005.81 206.511 1012 207.496V238.009C1005.88 236.693 999.518 236 993 236H744C694.294 236 654 276.294 654 326V440H1012V238.009C1052.58 246.73 1083 282.813 1083 326V587C1083 630.187 1052.58 666.27 1012 674.991V470H654V587C654 636.706 694.294 677 744 677H993C999.518 677 1005.88 676.307 1012 674.991V705.504C1005.81 706.489 999.465 707 993 707H771V910H741V707H744C677.726 707 624 653.274 624 587V590H388V587C388 653.274 334.274 707 268 707H272V910H242V707H19C12.5345 707 6.18842 706.489 0 705.504V674.991C6.12505 676.307 12.4816 677 19 677H268C317.706 677 358 636.706 358 587V470H0V674.991C-40.5811 666.27 -71 630.187 -71 587V326C-71 282.813 -40.5811 246.73 0 238.009V440H358V326C358 276.294 317.706 236 268 236H19C12.4816 236 6.12505 236.693 0 238.009V207.496C-57.2455 216.602 -101 266.191 -101 326V587C-101 646.809 -57.2455 696.398 0 705.504V830C0 874.183 35.8172 910 80 910H242V912H272V910H741V912H771V910H932C976.183 910 1012 874.183 1012 830V705.504C1069.25 696.398 1113 646.809 1113 587V326C1113 266.191 1069.25 216.602 1012 207.496V80C1012 35.8172 976.183 2.74181e-06 932 2.74181e-06L770 0ZM624 560H388V355H624V560Z" fill="#F0D93C"/>
</g>
</svg>
